<svg width="200" height="200" viewBox="0 0 200 200" fill="none" xmlns="http://www.w3.org/2000/svg">
<circle cx="107.354" cy="106.969" r="37.8372" fill="#F5A102"/>
<path d="M102.922 93.8549C104.603 89.5051 105.444 87.3302 106.809 87.0288C107.169 86.9495 107.54 86.9495 107.899 87.0288C109.265 87.3302 110.105 89.5051 111.787 93.8549C112.743 96.3285 113.221 97.5653 114.115 98.4065C114.366 98.6425 114.638 98.8526 114.928 99.034C115.962 99.6807 117.253 99.8006 119.834 100.041C124.204 100.447 126.389 100.65 127.056 101.943C127.194 102.21 127.288 102.5 127.334 102.8C127.555 104.249 125.949 105.765 122.737 108.798L121.845 109.64C120.343 111.058 119.592 111.767 119.157 112.652C118.897 113.183 118.722 113.754 118.64 114.344C118.504 115.327 118.724 116.355 119.164 118.412L119.321 119.147C120.109 122.836 120.504 124.681 120.011 125.588C119.569 126.402 118.755 126.923 117.855 126.968C116.853 127.018 115.442 125.824 112.619 123.437C110.76 121.864 109.83 121.078 108.798 120.771C107.854 120.49 106.854 120.49 105.911 120.771C104.878 121.078 103.949 121.864 102.089 123.437C99.2661 125.824 97.8548 127.018 96.8531 126.968C95.9534 126.923 95.1389 126.402 94.6968 125.588C94.2045 124.681 94.5988 122.836 95.3875 119.147L95.5447 118.412C95.9845 116.355 96.2043 115.327 96.0679 114.344C95.986 113.754 95.8113 113.183 95.5508 112.652C95.1164 111.767 94.3655 111.058 92.8637 109.64L91.9716 108.798C88.7592 105.765 87.1531 104.249 87.3743 102.8C87.4201 102.5 87.514 102.21 87.6522 101.943C88.3194 100.65 90.5042 100.447 94.8739 100.041C97.4552 99.8006 98.7459 99.6807 99.7798 99.034C100.07 98.8526 100.342 98.6425 100.593 98.4065C101.488 97.5653 101.966 96.3285 102.922 93.8549Z" fill="#FFFBFA"/>
</svg>
